<svg width="62" height="61" viewBox="0 0 62 61" fill="none" xmlns="http://www.w3.org/2000/svg">
<path d="M31 61C14.1831 61 0.5 47.3169 0.5 30.5C0.5 13.6831 14.1831 0 31 0C47.8169 0 61.5 13.6831 61.5 30.5C61.5 47.3169 47.8169 61 31 61ZM31 3.8125C16.2838 3.8125 4.3125 15.7838 4.3125 30.5C4.3125 45.2163 16.2838 57.1875 31 57.1875C45.7163 57.1875 57.6875 45.2163 57.6875 30.5C57.6875 15.7838 45.7163 3.8125 31 3.8125ZM44.3457 43.8438C43.6499 43.8438 42.9789 43.4625 42.6434 42.7991C42.611 42.7362 41.166 40.0312 38.625 40.0312C37.5518 40.0312 37.0943 40.4449 36.1602 41.379C35.1194 42.4198 33.6954 43.8438 31 43.8438C28.3046 43.8438 26.8787 42.4198 25.8398 41.379C24.9057 40.4449 24.4463 40.0312 23.375 40.0312C20.8168 40.0312 19.37 42.7724 19.3566 42.801C18.8763 43.7313 17.7306 44.1049 16.7965 43.6322C15.8625 43.1575 15.485 42.0233 15.9521 41.0854C16.0512 40.8853 18.4416 36.2188 23.375 36.2188C26.0704 36.2188 27.4963 37.6427 28.5352 38.6835C29.4693 39.6176 29.9287 40.0312 31 40.0312C32.0732 40.0312 32.5307 39.6176 33.4648 38.6835C34.5056 37.6427 35.9296 36.2188 38.625 36.2188C43.5584 36.2188 45.9507 40.8853 46.0498 41.0854C46.5207 42.0271 46.1394 43.1728 45.1978 43.6436C44.9232 43.7789 44.6316 43.8438 44.3457 43.8438ZM46.2481 34.3125C45.9031 34.3125 45.5542 34.2191 45.2397 34.0228L37.6147 29.2571C37.0581 28.9083 36.7188 28.2983 36.7188 27.6406C36.7188 26.983 37.0581 26.373 37.6147 26.0241L45.2397 21.2585C46.1337 20.7019 47.3099 20.9726 47.8665 21.8647C48.425 22.7568 48.1524 23.933 47.2622 24.4915L42.2221 27.6406L47.2622 30.7898C48.1543 31.3483 48.425 32.5244 47.8665 33.4166C47.5043 33.9961 46.8829 34.3125 46.2481 34.3125ZM15.7519 34.3125C15.1171 34.3125 14.4957 33.9961 14.1335 33.4166C13.5769 32.5225 13.8476 31.3483 14.7397 30.7898L19.7779 27.6406L14.7397 24.4915C13.8457 23.933 13.575 22.7568 14.1335 21.8647C14.692 20.9707 15.8701 20.7019 16.7603 21.2585L24.3853 26.0241C24.9419 26.373 25.2812 26.983 25.2812 27.6406C25.2812 28.2983 24.9419 28.9083 24.3853 29.2571L16.7603 34.0228C16.4458 34.2191 16.0969 34.3125 15.7519 34.3125Z" fill="black"/>
</svg>
